<mxfile host="app.diagrams.net" modified="2024-01-23T11:07:42.578Z" agent="Mozilla/5.0 (Windows NT 10.0; Win64; x64) AppleWebKit/537.36 (KHTML, like Gecko) Chrome/120.0.0.0 Safari/537.36" etag="CYu5qD162ZNw7bNOyBCY" version="22.1.21" type="device">
  <diagram name="PÃ¡gina-1" id="mPE1J9Nlh4gU2GfA061W">
    <mxGraphModel dx="1838" dy="703" grid="1" gridSize="10" guides="1" tooltips="1" connect="1" arrows="1" fold="1" page="1" pageScale="1" pageWidth="827" pageHeight="1169" math="0" shadow="0">
      <root>
        <mxCell id="0" />
        <mxCell id="1" parent="0" />
        <mxCell id="pl5qgwXr7iJRtKqWnqlZ-3" value="Patterns_type" style="shape=document;whiteSpace=wrap;html=1;boundedLbl=1;" parent="1" vertex="1">
          <mxGeometry x="750" y="835" width="120" height="80" as="geometry" />
        </mxCell>
        <mxCell id="pl5qgwXr7iJRtKqWnqlZ-4" value="CSV" style="shape=document;whiteSpace=wrap;html=1;boundedLbl=1;" parent="1" vertex="1">
          <mxGeometry x="147" y="255" width="120" height="80" as="geometry" />
        </mxCell>
        <mxCell id="pl5qgwXr7iJRtKqWnqlZ-5" value="Download&lt;br&gt;ontologies" style="shape=process;whiteSpace=wrap;html=1;backgroundOutline=1;" parent="1" vertex="1">
          <mxGeometry x="147" y="365" width="120" height="60" as="geometry" />
        </mxCell>
        <mxCell id="pl5qgwXr7iJRtKqWnqlZ-6" value="" style="endArrow=classic;html=1;rounded=0;entryX=0.5;entryY=0;entryDx=0;entryDy=0;exitX=0.501;exitY=0.849;exitDx=0;exitDy=0;exitPerimeter=0;" parent="1" source="pl5qgwXr7iJRtKqWnqlZ-4" target="pl5qgwXr7iJRtKqWnqlZ-5" edge="1">
          <mxGeometry width="50" height="50" relative="1" as="geometry">
            <mxPoint x="287" y="525" as="sourcePoint" />
            <mxPoint x="337" y="475" as="targetPoint" />
          </mxGeometry>
        </mxCell>
        <mxCell id="pl5qgwXr7iJRtKqWnqlZ-7" value="Ontologies&lt;br&gt;in&lt;br&gt;local" style="shape=cylinder3;whiteSpace=wrap;html=1;boundedLbl=1;backgroundOutline=1;size=15;" parent="1" vertex="1">
          <mxGeometry x="177" y="465" width="60" height="80" as="geometry" />
        </mxCell>
        <mxCell id="pl5qgwXr7iJRtKqWnqlZ-8" value="" style="endArrow=classic;html=1;rounded=0;entryX=0.5;entryY=0;entryDx=0;entryDy=0;exitX=0.5;exitY=1;exitDx=0;exitDy=0;entryPerimeter=0;" parent="1" source="pl5qgwXr7iJRtKqWnqlZ-5" target="pl5qgwXr7iJRtKqWnqlZ-7" edge="1">
          <mxGeometry width="50" height="50" relative="1" as="geometry">
            <mxPoint x="217" y="293" as="sourcePoint" />
            <mxPoint x="217" y="355" as="targetPoint" />
          </mxGeometry>
        </mxCell>
        <mxCell id="pl5qgwXr7iJRtKqWnqlZ-9" value="" style="endArrow=classic;html=1;rounded=0;entryX=0.5;entryY=0;entryDx=0;entryDy=0;exitX=0.5;exitY=1;exitDx=0;exitDy=0;exitPerimeter=0;" parent="1" source="pl5qgwXr7iJRtKqWnqlZ-7" target="pl5qgwXr7iJRtKqWnqlZ-10" edge="1">
          <mxGeometry width="50" height="50" relative="1" as="geometry">
            <mxPoint x="227" y="293" as="sourcePoint" />
            <mxPoint x="227" y="355" as="targetPoint" />
          </mxGeometry>
        </mxCell>
        <mxCell id="pl5qgwXr7iJRtKqWnqlZ-10" value="Detect&lt;br&gt;structures" style="shape=process;whiteSpace=wrap;html=1;backgroundOutline=1;" parent="1" vertex="1">
          <mxGeometry x="147" y="585" width="120" height="60" as="geometry" />
        </mxCell>
        <mxCell id="pl5qgwXr7iJRtKqWnqlZ-11" value="Structure_term_name" style="shape=document;whiteSpace=wrap;html=1;boundedLbl=1;" parent="1" vertex="1">
          <mxGeometry x="322" y="525" width="120" height="80" as="geometry" />
        </mxCell>
        <mxCell id="pl5qgwXr7iJRtKqWnqlZ-12" value="Structure_term_type" style="shape=document;whiteSpace=wrap;html=1;boundedLbl=1;" parent="1" vertex="1">
          <mxGeometry x="322" y="625" width="120" height="80" as="geometry" />
        </mxCell>
        <mxCell id="pl5qgwXr7iJRtKqWnqlZ-13" value="" style="endArrow=classic;html=1;rounded=0;entryX=0;entryY=0.5;entryDx=0;entryDy=0;exitX=1;exitY=0.5;exitDx=0;exitDy=0;edgeStyle=orthogonalEdgeStyle;" parent="1" source="pl5qgwXr7iJRtKqWnqlZ-10" target="pl5qgwXr7iJRtKqWnqlZ-11" edge="1">
          <mxGeometry width="50" height="50" relative="1" as="geometry">
            <mxPoint x="217" y="545" as="sourcePoint" />
            <mxPoint x="217" y="595" as="targetPoint" />
          </mxGeometry>
        </mxCell>
        <mxCell id="pl5qgwXr7iJRtKqWnqlZ-14" value="" style="endArrow=classic;html=1;rounded=0;entryX=0;entryY=0.5;entryDx=0;entryDy=0;exitX=1;exitY=0.5;exitDx=0;exitDy=0;edgeStyle=orthogonalEdgeStyle;" parent="1" source="pl5qgwXr7iJRtKqWnqlZ-10" target="pl5qgwXr7iJRtKqWnqlZ-12" edge="1">
          <mxGeometry width="50" height="50" relative="1" as="geometry">
            <mxPoint x="277" y="625" as="sourcePoint" />
            <mxPoint x="391" y="555" as="targetPoint" />
          </mxGeometry>
        </mxCell>
        <mxCell id="pl5qgwXr7iJRtKqWnqlZ-15" value="Infer term types&lt;br&gt;and blank node&lt;br&gt;types" style="shape=process;whiteSpace=wrap;html=1;backgroundOutline=1;" parent="1" vertex="1">
          <mxGeometry x="322" y="735" width="120" height="60" as="geometry" />
        </mxCell>
        <mxCell id="pl5qgwXr7iJRtKqWnqlZ-16" value="Structure_term_inferred_type" style="shape=document;whiteSpace=wrap;html=1;boundedLbl=1;" parent="1" vertex="1">
          <mxGeometry x="322" y="835" width="208" height="80" as="geometry" />
        </mxCell>
        <mxCell id="pl5qgwXr7iJRtKqWnqlZ-17" value="" style="endArrow=classic;html=1;rounded=0;entryX=0.5;entryY=0;entryDx=0;entryDy=0;exitX=0.5;exitY=0.848;exitDx=0;exitDy=0;exitPerimeter=0;" parent="1" source="pl5qgwXr7iJRtKqWnqlZ-12" target="pl5qgwXr7iJRtKqWnqlZ-15" edge="1">
          <mxGeometry width="50" height="50" relative="1" as="geometry">
            <mxPoint x="218" y="625" as="sourcePoint" />
            <mxPoint x="332" y="675" as="targetPoint" />
          </mxGeometry>
        </mxCell>
        <mxCell id="pl5qgwXr7iJRtKqWnqlZ-18" value="" style="endArrow=classic;html=1;rounded=0;entryX=0.288;entryY=-0.005;entryDx=0;entryDy=0;exitX=0.5;exitY=1;exitDx=0;exitDy=0;entryPerimeter=0;" parent="1" source="pl5qgwXr7iJRtKqWnqlZ-15" target="pl5qgwXr7iJRtKqWnqlZ-16" edge="1">
          <mxGeometry width="50" height="50" relative="1" as="geometry">
            <mxPoint x="392" y="703" as="sourcePoint" />
            <mxPoint x="392" y="745" as="targetPoint" />
          </mxGeometry>
        </mxCell>
        <mxCell id="pl5qgwXr7iJRtKqWnqlZ-19" value="Detect specific&lt;br&gt;patterns" style="shape=process;whiteSpace=wrap;html=1;backgroundOutline=1;" parent="1" vertex="1">
          <mxGeometry x="580" y="330" width="120" height="60" as="geometry" />
        </mxCell>
        <mxCell id="pl5qgwXr7iJRtKqWnqlZ-20" value="Detect generic&lt;br&gt;patterns" style="shape=process;whiteSpace=wrap;html=1;backgroundOutline=1;" parent="1" vertex="1">
          <mxGeometry x="580" y="845" width="120" height="60" as="geometry" />
        </mxCell>
        <mxCell id="pl5qgwXr7iJRtKqWnqlZ-21" value="" style="endArrow=classic;html=1;rounded=0;entryX=0;entryY=0.5;entryDx=0;entryDy=0;exitX=1;exitY=0.5;exitDx=0;exitDy=0;" parent="1" source="pl5qgwXr7iJRtKqWnqlZ-16" target="pl5qgwXr7iJRtKqWnqlZ-20" edge="1">
          <mxGeometry width="50" height="50" relative="1" as="geometry">
            <mxPoint x="392" y="805" as="sourcePoint" />
            <mxPoint x="392" y="845" as="targetPoint" />
          </mxGeometry>
        </mxCell>
        <mxCell id="pl5qgwXr7iJRtKqWnqlZ-22" value="" style="endArrow=classic;html=1;rounded=0;entryX=0;entryY=0.5;entryDx=0;entryDy=0;exitX=1;exitY=0.5;exitDx=0;exitDy=0;" parent="1" source="lVXh2lLHpUhqBKJ51-Kp-2" target="pl5qgwXr7iJRtKqWnqlZ-19" edge="1">
          <mxGeometry width="50" height="50" relative="1" as="geometry">
            <mxPoint x="480" y="885" as="sourcePoint" />
            <mxPoint x="548" y="885" as="targetPoint" />
          </mxGeometry>
        </mxCell>
        <mxCell id="pl5qgwXr7iJRtKqWnqlZ-23" value="Patterns_name" style="shape=document;whiteSpace=wrap;html=1;boundedLbl=1;" parent="1" vertex="1">
          <mxGeometry x="750" y="320" width="120" height="80" as="geometry" />
        </mxCell>
        <mxCell id="pl5qgwXr7iJRtKqWnqlZ-24" value="" style="endArrow=classic;html=1;rounded=0;entryX=0;entryY=0.5;entryDx=0;entryDy=0;exitX=1;exitY=0.5;exitDx=0;exitDy=0;" parent="1" source="pl5qgwXr7iJRtKqWnqlZ-19" target="pl5qgwXr7iJRtKqWnqlZ-23" edge="1">
          <mxGeometry width="50" height="50" relative="1" as="geometry">
            <mxPoint x="514" y="370" as="sourcePoint" />
            <mxPoint x="590" y="370" as="targetPoint" />
          </mxGeometry>
        </mxCell>
        <mxCell id="pl5qgwXr7iJRtKqWnqlZ-25" value="" style="endArrow=classic;html=1;rounded=0;entryX=0;entryY=0.5;entryDx=0;entryDy=0;exitX=1;exitY=0.5;exitDx=0;exitDy=0;" parent="1" source="pl5qgwXr7iJRtKqWnqlZ-20" target="pl5qgwXr7iJRtKqWnqlZ-3" edge="1">
          <mxGeometry width="50" height="50" relative="1" as="geometry">
            <mxPoint x="710" y="575" as="sourcePoint" />
            <mxPoint x="790" y="575" as="targetPoint" />
          </mxGeometry>
        </mxCell>
        <mxCell id="pl5qgwXr7iJRtKqWnqlZ-26" value="Start 1" style="ellipse;whiteSpace=wrap;html=1;" parent="1" vertex="1">
          <mxGeometry x="20" y="265" width="90" height="60" as="geometry" />
        </mxCell>
        <mxCell id="pl5qgwXr7iJRtKqWnqlZ-27" value="Start 2" style="ellipse;whiteSpace=wrap;html=1;" parent="1" vertex="1">
          <mxGeometry x="20" y="475" width="90" height="60" as="geometry" />
        </mxCell>
        <mxCell id="pl5qgwXr7iJRtKqWnqlZ-28" value="" style="endArrow=classic;html=1;rounded=0;entryX=0;entryY=0.5;entryDx=0;entryDy=0;exitX=1;exitY=0.5;exitDx=0;exitDy=0;entryPerimeter=0;" parent="1" source="pl5qgwXr7iJRtKqWnqlZ-27" target="pl5qgwXr7iJRtKqWnqlZ-7" edge="1">
          <mxGeometry width="50" height="50" relative="1" as="geometry">
            <mxPoint x="217" y="435" as="sourcePoint" />
            <mxPoint x="217" y="475" as="targetPoint" />
          </mxGeometry>
        </mxCell>
        <mxCell id="pl5qgwXr7iJRtKqWnqlZ-29" value="" style="endArrow=classic;html=1;rounded=0;entryX=0;entryY=0.5;entryDx=0;entryDy=0;exitX=1;exitY=0.5;exitDx=0;exitDy=0;" parent="1" source="pl5qgwXr7iJRtKqWnqlZ-26" target="pl5qgwXr7iJRtKqWnqlZ-4" edge="1">
          <mxGeometry width="50" height="50" relative="1" as="geometry">
            <mxPoint x="140" y="515" as="sourcePoint" />
            <mxPoint x="187" y="515" as="targetPoint" />
          </mxGeometry>
        </mxCell>
        <mxCell id="ZGgF5hQ5RpT2w8QsAeHO-5" value="&lt;font style=&quot;font-size: 24px;&quot;&gt;&lt;b&gt;python&amp;nbsp; app.py&amp;nbsp; --ontology_path&amp;nbsp; --csv_path&amp;nbsp; --patterns_type&lt;/b&gt;&lt;/font&gt;" style="text;html=1;strokeColor=none;fillColor=none;align=center;verticalAlign=middle;whiteSpace=wrap;rounded=0;" parent="1" vertex="1">
          <mxGeometry x="7" y="40" width="720" height="30" as="geometry" />
        </mxCell>
        <mxCell id="ZGgF5hQ5RpT2w8QsAeHO-7" value="" style="shape=curlyBracket;whiteSpace=wrap;html=1;rounded=1;flipH=1;labelPosition=right;verticalLabelPosition=middle;align=left;verticalAlign=middle;rotation=90;" parent="1" vertex="1">
          <mxGeometry x="287" y="-10" width="20" height="180" as="geometry" />
        </mxCell>
        <mxCell id="ZGgF5hQ5RpT2w8QsAeHO-8" value="" style="shape=curlyBracket;whiteSpace=wrap;html=1;rounded=1;flipH=1;labelPosition=right;verticalLabelPosition=middle;align=left;verticalAlign=middle;rotation=90;" parent="1" vertex="1">
          <mxGeometry x="452" y="15" width="20" height="130" as="geometry" />
        </mxCell>
        <mxCell id="ZGgF5hQ5RpT2w8QsAeHO-9" value="" style="shape=curlyBracket;whiteSpace=wrap;html=1;rounded=1;flipH=1;labelPosition=right;verticalLabelPosition=middle;align=left;verticalAlign=middle;rotation=90;" parent="1" vertex="1">
          <mxGeometry x="617.07" y="-9.68" width="20" height="179.37" as="geometry" />
        </mxCell>
        <mxCell id="ZGgF5hQ5RpT2w8QsAeHO-10" value="&lt;font style=&quot;font-size: 16px;&quot;&gt;Mandatory&lt;/font&gt;" style="text;html=1;strokeColor=none;fillColor=none;align=center;verticalAlign=middle;whiteSpace=wrap;rounded=0;" parent="1" vertex="1">
          <mxGeometry x="267" y="90" width="60" height="30" as="geometry" />
        </mxCell>
        <mxCell id="ZGgF5hQ5RpT2w8QsAeHO-11" value="&lt;font style=&quot;font-size: 16px;&quot;&gt;Optional&lt;/font&gt;" style="text;html=1;strokeColor=none;fillColor=none;align=center;verticalAlign=middle;whiteSpace=wrap;rounded=0;" parent="1" vertex="1">
          <mxGeometry x="431" y="90" width="60" height="30" as="geometry" />
        </mxCell>
        <mxCell id="ZGgF5hQ5RpT2w8QsAeHO-12" value="&lt;div style=&quot;text-align: justify;&quot;&gt;&lt;span style=&quot;font-size: 16px; background-color: initial;&quot;&gt;Optional&lt;/span&gt;&lt;/div&gt;&lt;font style=&quot;font-size: 16px;&quot;&gt;&lt;div style=&quot;text-align: justify;&quot;&gt;&lt;span style=&quot;background-color: initial;&quot;&gt;Chose from: type, name, both&lt;/span&gt;&lt;/div&gt;&lt;div style=&quot;text-align: justify;&quot;&gt;&lt;span style=&quot;background-color: initial;&quot;&gt;Defauly: type&lt;/span&gt;&lt;/div&gt;&lt;/font&gt;" style="text;html=1;strokeColor=none;fillColor=none;align=center;verticalAlign=middle;whiteSpace=wrap;rounded=0;" parent="1" vertex="1">
          <mxGeometry x="587" y="90" width="239.93" height="60" as="geometry" />
        </mxCell>
        <mxCell id="lVXh2lLHpUhqBKJ51-Kp-1" value="Infer blank node&lt;br&gt;types" style="shape=process;whiteSpace=wrap;html=1;backgroundOutline=1;" vertex="1" parent="1">
          <mxGeometry x="322" y="425" width="120" height="60" as="geometry" />
        </mxCell>
        <mxCell id="lVXh2lLHpUhqBKJ51-Kp-2" value="Structure_term_inferred_blank_node" style="shape=document;whiteSpace=wrap;html=1;boundedLbl=1;" vertex="1" parent="1">
          <mxGeometry x="322" y="320" width="208" height="80" as="geometry" />
        </mxCell>
        <mxCell id="lVXh2lLHpUhqBKJ51-Kp-3" value="" style="endArrow=classic;html=1;rounded=0;entryX=0.5;entryY=1;entryDx=0;entryDy=0;exitX=0.5;exitY=0;exitDx=0;exitDy=0;" edge="1" parent="1" source="pl5qgwXr7iJRtKqWnqlZ-11" target="lVXh2lLHpUhqBKJ51-Kp-1">
          <mxGeometry width="50" height="50" relative="1" as="geometry">
            <mxPoint x="392" y="703" as="sourcePoint" />
            <mxPoint x="392" y="745" as="targetPoint" />
          </mxGeometry>
        </mxCell>
        <mxCell id="lVXh2lLHpUhqBKJ51-Kp-4" value="" style="endArrow=classic;html=1;rounded=0;exitX=0.5;exitY=0;exitDx=0;exitDy=0;entryX=0.289;entryY=0.976;entryDx=0;entryDy=0;entryPerimeter=0;" edge="1" parent="1" source="lVXh2lLHpUhqBKJ51-Kp-1" target="lVXh2lLHpUhqBKJ51-Kp-2">
          <mxGeometry width="50" height="50" relative="1" as="geometry">
            <mxPoint x="392" y="805" as="sourcePoint" />
            <mxPoint x="400" y="410" as="targetPoint" />
          </mxGeometry>
        </mxCell>
      </root>
    </mxGraphModel>
  </diagram>
</mxfile>
